{
	"asset":{
		"generator":"Khronos glTF Blender I/O v4.3.47",
		"version":"2.0"
	},
	"extensionsUsed":[
		"KHR_materials_specular"
	],
	"scene":0,
	"scenes":[
		{
			"name":"Scene",
			"nodes":[
				0
			]
		}
	],
	"nodes":[
		{
			"mesh":0,
			"name":"nav_test.obj",
			"rotation":[
				0.7071068286895752,
				0,
				0,
				0.7071068286895752
			]
		}
	],
	"materials":[
		{
			"doubleSided":true,
			"extensions":{
				"KHR_materials_specular":{
					"specularFactor":0
				}
			},
			"name":"Default",
			"pbrMetallicRoughness":{
				"baseColorFactor":[
					0.800000011920929,
					0.800000011920929,
					0.800000011920929,
					1
				],
				"metallicFactor":0
			}
		}
	],
	"meshes":[
		{
			"name":"nav_test.obj",
			"primitives":[
				{
					"attributes":{
						"POSITION":0,
						"NORMAL":1,
						"TEXCOORD_0":2
					},
					"indices":3,
					"material":0
				}
			]
		}
	],
	"accessors":[
		{
			"bufferView":0,
			"componentType":5126,
			"count":884,
			"max":[
				62.494808197021484,
				31.05314064025879,
				4.869516849517822
			],
			"min":[
				-28.88931655883789,
				-46.30015182495117,
				-17.010753631591797
			],
			"type":"VEC3"
		},
		{
			"bufferView":1,
			"componentType":5126,
			"count":884,
			"type":"VEC3"
		},
		{
			"bufferView":2,
			"componentType":5126,
			"count":884,
			"type":"VEC2"
		},
		{
			"bufferView":3,
			"componentType":5123,
			"count":4836,
			"type":"SCALAR"
		}
	],
	"bufferViews":[
		{
			"buffer":0,
			"byteLength":10608,
			"byteOffset":0,
			"target":34962
		},
		{
			"buffer":0,
			"byteLength":10608,
			"byteOffset":10608,
			"target":34962
		},
		{
			"buffer":0,
			"byteLength":7072,
			"byteOffset":21216,
			"target":34962
		},
		{
			"buffer":0,
			"byteLength":9672,
			"byteOffset":28288,
			"target":34963
		}
	],
	"buffers":[
		{
			"byteLength":37960,
			"uri":"XNavTest.bin"
		}
	]
}
