{
	"asset":{
		"generator":"Khronos glTF Blender I/O v4.3.47",
		"version":"2.0"
	},
	"scene":0,
	"scenes":[
		{
			"name":"Scene",
			"nodes":[
				6
			]
		}
	],
	"nodes":[
		{
			"mesh":0,
			"name":"Object_6",
			"scale":[
				0.40000003576278687,
				0.40000003576278687,
				0.40000003576278687
			],
			"translation":[
				0,
				-15.000000953674316,
				0
			]
		},
		{
			"children":[
				0
			],
			"name":"Object_5",
			"translation":[
				-10.159093856811523,
				-0.13740158081054688,
				23.837779998779297
			]
		},
		{
			"children":[
				1
			],
			"name":"AmmoCrate_low",
			"translation":[
				-1.9422607421875,
				20.15987205505371,
				-23.837779998779297
			]
		},
		{
			"children":[
				2
			],
			"name":"RootNode"
		},
		{
			"children":[
				3
			],
			"name":"Object_2"
		},
		{
			"children":[
				4
			],
			"name":"AmmoCrate1.FBX",
			"rotation":[
				1,
				0,
				0,
				0
			]
		},
		{
			"children":[
				5
			],
			"name":"Sketchfab_model",
			"rotation":[
				1,
				0,
				0,
				0
			],
			"scale":[
				0.10000000149011612,
				0.10000000149011612,
				0.10000000149011612
			]
		}
	],
	"materials":[
		{
			"doubleSided":true,
			"name":"Material_2",
			"normalTexture":{
				"index":0
			},
			"occlusionTexture":{
				"index":1
			},
			"pbrMetallicRoughness":{
				"baseColorTexture":{
					"index":2
				},
				"metallicRoughnessTexture":{
					"index":1
				}
			}
		}
	],
	"meshes":[
		{
			"name":"Object_0",
			"primitives":[
				{
					"attributes":{
						"POSITION":0,
						"NORMAL":1,
						"TEXCOORD_0":2
					},
					"indices":3,
					"material":0
				}
			]
		}
	],
	"textures":[
		{
			"sampler":0,
			"source":0
		},
		{
			"sampler":0,
			"source":1
		},
		{
			"sampler":0,
			"source":2
		}
	],
	"images":[
		{
			"mimeType":"image/png",
			"name":"Image_2",
			"uri":"Image_2.png"
		},
		{
			"mimeType":"image/png",
			"name":"Image_1",
			"uri":"Image_1.png"
		},
		{
			"mimeType":"image/png",
			"name":"Image_0",
			"uri":"Image_0.png"
		}
	],
	"accessors":[
		{
			"bufferView":0,
			"componentType":5126,
			"count":3991,
			"max":[
				55.404666900634766,
				8.857629776000977,
				1.924020767211914
			],
			"min":[
				-35.08647918701172,
				-8.582825660705566,
				-49.599578857421875
			],
			"type":"VEC3"
		},
		{
			"bufferView":1,
			"componentType":5126,
			"count":3991,
			"type":"VEC3"
		},
		{
			"bufferView":2,
			"componentType":5126,
			"count":3991,
			"type":"VEC2"
		},
		{
			"bufferView":3,
			"componentType":5123,
			"count":14304,
			"type":"SCALAR"
		}
	],
	"bufferViews":[
		{
			"buffer":0,
			"byteLength":47892,
			"byteOffset":0,
			"target":34962
		},
		{
			"buffer":0,
			"byteLength":47892,
			"byteOffset":47892,
			"target":34962
		},
		{
			"buffer":0,
			"byteLength":31928,
			"byteOffset":95784,
			"target":34962
		},
		{
			"buffer":0,
			"byteLength":28608,
			"byteOffset":127712,
			"target":34963
		}
	],
	"samplers":[
		{
			"magFilter":9729,
			"minFilter":9987
		}
	],
	"buffers":[
		{
			"byteLength":156320,
			"uri":"untitled.bin"
		}
	]
}
